<?xml version="1.0" encoding="UTF-8"?>
<svg version="1.1" xmlns="http://www.w3.org/2000/svg" width="93" height="93">
<path d="M0 0 C28.71 0 57.42 0 87 0 C88.95357699 3.90715399 89.24651067 5.24671584 89.22705078 9.41113281 C89.22680908 10.50699707 89.22656738 11.60286133 89.22631836 12.73193359 C89.21608643 13.87742676 89.20585449 15.02291992 89.1953125 16.203125 C89.19329834 17.26063965 89.19128418 18.3181543 89.18920898 19.40771484 C89.17875098 23.3551874 89.1508284 27.30259809 89.125 31.25 C89.08375 40.0775 89.0425 48.905 89 58 C58.97 58 28.94 58 -2 58 C-2.04125 49.1725 -2.0825 40.345 -2.125 31.25 C-2.14320801 28.46723633 -2.16141602 25.68447266 -2.18017578 22.81738281 C-2.18601681 20.61263217 -2.19111329 18.40787938 -2.1953125 16.203125 C-2.20554443 15.05763184 -2.21577637 13.91213867 -2.22631836 12.73193359 C-2.22656006 11.63606934 -2.22680176 10.54020508 -2.22705078 9.41113281 C-2.231492 8.46071106 -2.23593323 7.51028931 -2.24050903 6.53106689 C-2 4 -2 4 0 0 Z M72 8 C72 8.66 72 9.32 72 10 C72.99 10.33 73.98 10.66 75 11 C76.37195574 12.29355827 77.71182656 13.62298702 79 15 C79.38133299 13.0085944 79.71325582 11.00720923 80 9 C78.81575674 7.58422523 78.81575674 7.58422523 75.4375 7.9375 C73.7359375 7.9684375 73.7359375 7.9684375 72 8 Z M13 9 C12.67 9.66 12.34 10.32 12 11 C9.9375 11.625 9.9375 11.625 8 12 C8 12.99 8 13.98 8 15 C7.34 15.66 6.68 16.32 6 17 C6.33 17.66 6.66 18.32 7 19 C6.34 19 5.68 19 5 19 C5.33 21.31 5.66 23.62 6 26 C7.32 26.33 8.64 26.66 10 27 C12.12046792 23.46588679 12.53199289 20.05606165 13 16 C13.99 15.67 14.98 15.34 16 15 C16 13.02 16 11.04 16 9 C15.01 9 14.02 9 13 9 Z M20 9 C20 11.31 20 13.62 20 16 C20.99 16.33 21.98 16.66 23 17 C23.33 18.65 23.66 20.3 24 22 C25.98 22.66 27.96 23.32 30 24 C30.7360857 18.87969736 30.7360857 18.87969736 28.734375 14.42578125 C27.21940598 13.20130387 25.61080443 12.09534701 24 11 C23.34 10.34 22.68 9.68 22 9 C21.34 9 20.68 9 20 9 Z M51 10 C51 10.66 51 11.32 51 12 C50.01 12.495 50.01 12.495 49 13 C49.99 13.99 50.98 14.98 52 16 C52.99 15.01 53.98 14.02 55 13 C54.67 12.01 54.34 11.02 54 10 C53.01 10 52.02 10 51 10 Z M70 15 C70 15.99 70 16.98 70 18 C70.66 17.34 71.32 16.68 72 16 C71.34 15.67 70.68 15.34 70 15 Z M63 19 C62.67 19.99 62.34 20.98 62 22 C64.475 22.99 64.475 22.99 67 24 C67.33 22.68 67.66 21.36 68 20 C66.35 19.67 64.7 19.34 63 19 Z M75 19 C75 29.56 75 40.12 75 51 C76.98 51 78.96 51 81 51 C81 40.44 81 29.88 81 19 C79.02 19 77.04 19 75 19 Z M12 23 C13 25 13 25 13 25 Z M14 28 C12.7763932 30.0745356 12.7763932 30.0745356 13 33 C15.97 33 18.94 33 22 33 C22 32.34 22 31.68 22 31 C22.99 31.33 23.98 31.66 25 32 C25.66 31.01 26.32 30.02 27 29 C25.35773921 26.01301388 25.35773921 26.01301388 23.3125 25.125 C19.71038305 24.93029098 17.16044445 26.38996226 14 28 Z M49 25 C49 33.58 49 42.16 49 51 C50.98 51 52.96 51 55 51 C55 42.42 55 33.84 55 25 C53.02 25 51.04 25 49 25 Z M39 27 C38.01 28.485 38.01 28.485 37 30 C39.475 30.495 39.475 30.495 42 31 C42 30.01 42 29.02 42 28 C41.01 27.67 40.02 27.34 39 27 Z M62 31 C62 37.6 62 44.2 62 51 C63.98 51 65.96 51 68 51 C68 44.4 68 37.8 68 31 C66.02 31 64.04 31 62 31 Z M36 39 C36 42.96 36 46.92 36 51 C38.31 51 40.62 51 43 51 C43 47.04 43 43.08 43 39 C40.69 39 38.38 39 36 39 Z M12 40 C12.33 40.66 12.66 41.32 13 42 C17.29 42 21.58 42 26 42 C26.33 41.34 26.66 40.68 27 40 C22.05 40 17.1 40 12 40 Z M7 46 C8.485 46.99 8.485 46.99 10 48 C10 47.34 10 46.68 10 46 C9.01 46 8.02 46 7 46 Z M12 46 C12 46.66 12 47.32 12 48 C16.62 48 21.24 48 26 48 C26.33 47.34 26.66 46.68 27 46 C22.05 46 17.1 46 12 46 Z M8 52 C8 52.66 8 53.32 8 54 C8.66 54 9.32 54 10 54 C10 53.34 10 52.68 10 52 C9.34 52 8.68 52 8 52 Z M12 52 C12 52.66 12 53.32 12 54 C16.95 54 21.9 54 27 54 C27 53.34 27 52.68 27 52 C22.05 52 17.1 52 12 52 Z " fill="#E5E5E5" transform="translate(3,7)"/>
<path d="M0 0 C30.03 0 60.06 0 91 0 C91 1.98 91 3.96 91 6 C87.19561404 7.26812865 83.6357396 7.13127336 79.6730957 7.11352539 C78.82409698 7.11367142 77.97509827 7.11381744 77.10037231 7.1139679 C74.29214937 7.11327083 71.48399262 7.10548806 68.67578125 7.09765625 C66.72950781 7.09579134 64.78323391 7.09436778 62.83695984 7.09336853 C57.71266383 7.08954912 52.58839614 7.07972373 47.46411133 7.06866455 C42.23584374 7.05843806 37.00757158 7.05386825 31.77929688 7.04882812 C21.51951881 7.03810097 11.25976176 7.02103143 1 7 C0 4 0 4 0 0 Z " fill="#F9F9F9" transform="translate(1,67)"/>
<path d="M0 0 C1.69955838 -0.03303126 3.39984455 -0.03682031 5.09960938 -0.01708984 C6.44762634 -0.02426529 6.44762634 -0.02426529 7.82287598 -0.03158569 C9.72259268 -0.03498762 11.62236768 -0.02576465 13.52197266 -0.00488281 C16.43329131 0.0218801 19.34075468 -0.00461908 22.25195312 -0.03662109 C24.09701374 -0.03331705 25.94207194 -0.02691091 27.78710938 -0.01708984 C29.09500427 -0.03227158 29.09500427 -0.03227158 30.42932129 -0.04776001 C32.70806838 -0.00347211 34.73302919 0.09204275 36.94335938 0.64697266 C40.18600047 4.13487478 39.94335938 5.73923923 39.94335938 10.64697266 C24.43335937 10.64697266 8.92335937 10.64697266 -7.05664062 10.64697266 C-7.05664062 4.55640767 -6.63649882 0.55438109 0 0 Z " fill="#DFDFDF" transform="translate(30.056640625,75.35302734375)"/>
<path d="M0 0 C0.99 1.32 1.98 2.64 3 4 C2.278125 4.4125 1.55625 4.825 0.8125 5.25 C-1.97969862 6.98736803 -4.47012585 8.90381857 -7 11 C-5.07469586 7.00129139 -3.15703281 3.15703281 0 0 Z " fill="#8E8E8E" transform="translate(78,18)"/>
<path d="" fill="#000000" transform="translate(0,0)"/>
<path d="" fill="#000000" transform="translate(0,0)"/>
<path d="" fill="#000000" transform="translate(0,0)"/>
<path d="" fill="#000000" transform="translate(0,0)"/>
<path d="" fill="#000000" transform="translate(0,0)"/>
<path d="" fill="#000000" transform="translate(0,0)"/>
<path d="" fill="#000000" transform="translate(0,0)"/>
<path d="" fill="#000000" transform="translate(0,0)"/>
<path d="" fill="#000000" transform="translate(0,0)"/>
<path d="" fill="#000000" transform="translate(0,0)"/>
<path d="" fill="#000000" transform="translate(0,0)"/>
<path d="" fill="#000000" transform="translate(0,0)"/>
<path d="" fill="#000000" transform="translate(0,0)"/>
<path d="" fill="#000000" transform="translate(0,0)"/>
<path d="" fill="#000000" transform="translate(0,0)"/>
<path d="" fill="#000000" transform="translate(0,0)"/>
<path d="" fill="#000000" transform="translate(0,0)"/>
<path d="" fill="#000000" transform="translate(0,0)"/>
<path d="" fill="#000000" transform="translate(0,0)"/>
</svg>
